<?xml version="1.0" standalone="no"?>
<!DOCTYPE svg PUBLIC "-//W3C//DTD SVG 20010904//EN"
 "http://www.w3.org/TR/2001/REC-SVG-20010904/DTD/svg10.dtd">
<svg version="1.0" xmlns="http://www.w3.org/2000/svg"
 width="1408.000000pt" height="1408.000000pt" viewBox="0 0 1408.000000 1408.000000"
 preserveAspectRatio="xMidYMid meet">
<metadata>
Created by potrace 1.11, written by Peter Selinger 2001-2013
</metadata>
<g transform="translate(0.000000,1408.000000) scale(0.100000,-0.100000)"
fill="#000000" stroke="none">
<path d="M0 7040 l0 -7040 7040 0 7040 0 0 7040 0 7040 -7040 0 -7040 0 0
-7040z m6767 6217 c447 -39 879 -105 1238 -188 466 -107 1084 -320 1400 -483
496 -255 899 -663 1156 -1171 142 -281 224 -559 275 -930 28 -204 26 -699 -4
-895 -47 -305 -121 -546 -247 -805 -200 -410 -442 -730 -710 -940 -273 -213
-709 -434 -1290 -653 -242 -91 -329 -115 -710 -192 -192 -40 -352 -74 -354
-76 -2 -2 1 -9 6 -16 58 -73 1889 -2327 1898 -2337 11 -12 19 -6 47 34 42 61
139 192 200 270 26 33 78 108 115 167 37 59 108 169 157 245 98 153 116 187
181 355 39 101 45 128 45 190 0 213 -181 334 -582 391 l-158 22 0 137 0 138
1465 0 1465 0 0 -140 c0 -131 -1 -140 -19 -140 -10 0 -65 -5 -122 -10 -365
-37 -679 -163 -964 -385 -99 -77 -261 -244 -341 -350 -69 -92 -947 -1540 -948
-1564 -1 -9 321 -412 714 -896 853 -1050 938 -1142 1231 -1335 178 -118 393
-213 595 -264 112 -28 282 -56 346 -56 93 0 88 11 88 -186 l0 -174 -1494 0
-1493 0 -487 625 c-268 344 -490 625 -494 625 -10 0 -171 -292 -227 -412 -94
-199 -105 -268 -57 -359 66 -127 256 -197 587 -215 l125 -7 0 -138 0 -139
-1345 0 -1345 0 0 140 c0 77 4 140 8 140 36 0 274 35 348 51 397 86 598 249
897 728 69 112 454 770 496 848 10 20 -105 172 -1450 1918 l-1461 1895 -56 -1
c-31 0 -264 -8 -517 -17 l-460 -17 -3 -1860 c-2 -1227 1 -1926 8 -2055 29
-544 133 -882 325 -1057 183 -168 581 -283 1120 -323 83 -6 165 -14 183 -16
l32 -5 0 -174 0 -175 -2565 0 -2565 0 0 175 c0 173 0 175 23 179 12 3 83 10
157 16 509 44 893 161 1067 323 165 154 256 445 305 972 10 113 13 998 13
4530 0 4714 2 4483 -51 4772 -78 427 -219 610 -577 752 -171 68 -524 143 -814
172 l-123 13 0 178 0 179 2768 -4 c2445 -3 2788 -6 2949 -20z"/>
<path d="M5282 12580 c-250 -17 -467 -62 -558 -115 -87 -51 -157 -160 -191
-301 -16 -64 -18 -247 -20 -2431 l-3 -2363 157 0 c398 1 934 20 1090 40 395
50 1031 180 1333 271 684 206 1056 493 1411 1086 227 380 323 730 336 1224 26
974 -311 1689 -995 2112 -408 252 -914 400 -1587 463 -190 17 -797 26 -973 14z"/>
</g>
</svg>
